<svg width="63" height="63" viewBox="0 0 63 63" fill="none" xmlns="http://www.w3.org/2000/svg">
<g clip-path="url(#clip0_55_202)">
<path d="M62.8302 27.9884C62.3914 24.0759 61.285 20.3628 59.4266 16.8934C55.5111 9.58292 49.6362 4.52158 41.8248 1.73092C39.1179 0.763576 36.3155 0.231904 33.4448 0.0596034C33.3685 0.0552959 33.2775 0.0891407 33.2227 -0.000701904H29.9004C29.5687 0.119909 29.2173 0.079295 28.8764 0.108832C22.7813 0.639888 17.2738 2.72473 12.426 6.45135C6.20283 11.2358 2.28114 17.4989 0.638744 25.178C0.379677 26.3884 0.214761 27.6155 0.104611 28.8511C0.0775354 29.1582 0.129841 29.4806 0 29.7778V33.1617C0.129226 33.502 0.0787662 33.8651 0.107688 34.2146C0.336602 36.9739 0.937194 39.6488 1.86885 42.2524C1.87193 42.2604 1.88423 42.2653 1.89223 42.2721C2.39868 43.7705 3.07126 45.1969 3.82139 46.5846C4.57644 47.9814 5.4484 49.3063 6.41021 50.5727C8.36337 53.1437 10.6611 55.3553 13.2906 57.2223C17.1316 59.9502 21.3795 61.7169 26.015 62.5489C27.0734 62.739 28.1404 62.8719 29.2142 62.9427C29.2819 62.947 29.3613 62.9242 29.4081 63.0011H33.6535C34.1457 62.8615 34.6577 62.8799 35.1599 62.8208C37.8994 62.499 40.5566 61.8486 43.1152 60.8178C45.3921 59.901 47.536 58.7281 49.555 57.3337C50.2036 56.8857 50.8054 56.3713 51.4355 55.8962C52.2213 55.303 52.9087 54.5978 53.6342 53.9381C54.1363 53.4815 54.5554 52.9357 55.0243 52.4416C55.588 51.8477 56.1006 51.2108 56.5935 50.5598C57.5559 49.2885 58.4273 47.9568 59.1854 46.5513C59.5595 45.8584 59.9103 45.1551 60.2401 44.4406C60.1693 44.3803 60.0912 44.36 60.0106 44.3551C60.0912 44.36 60.1693 44.3797 60.2401 44.4406C60.8776 43.1299 61.3521 41.7577 61.7644 40.3633C62.3853 38.2636 62.7625 36.1185 62.9379 33.9364C62.944 33.8607 62.9077 33.7684 63.0006 33.7155V29.4701C62.872 28.9846 62.8855 28.4825 62.8302 27.989V27.9884ZM41.9251 45.9987C41.3541 47.1279 40.5873 47.4885 39.3566 47.2122C38.5616 47.0338 37.8687 46.6418 37.2158 46.1803C35.3112 44.8332 33.3409 43.5847 31.4222 42.2592C31.3557 42.213 31.2831 42.1755 31.2129 42.1343C31.1249 42.1804 31.0339 42.2112 30.9416 42.2309C31.0339 42.2106 31.1249 42.1804 31.2129 42.1343C30.3047 41.4672 29.3521 40.8654 28.4192 40.2347C27.9681 39.93 27.5251 39.6162 27.17 39.1965C26.6433 38.5738 26.6045 37.9634 27.0513 37.2822C27.306 36.8939 27.6297 36.564 27.9651 36.2471C30.3545 33.9844 32.7476 31.7254 35.1352 29.4615C35.8571 28.7773 36.5666 28.0807 37.2373 27.3453C37.3819 27.1865 37.5222 27.0222 37.6502 26.8499C37.7881 26.6635 37.7561 26.461 37.6545 26.2697C37.5604 26.0924 37.3924 26.0629 37.2072 26.0647C36.9241 26.0672 36.6989 26.2094 36.473 26.3509C34.3439 27.6813 32.2714 29.0979 30.1853 30.4935C27.9288 32.003 25.6821 33.5285 23.4249 35.0373C22.5745 35.6059 21.6656 36.041 20.6263 36.1462C19.7752 36.2323 18.9623 36.02 18.1513 35.8287C16.931 35.5407 15.7391 35.1481 14.5428 34.7721C13.9016 34.5703 13.2579 34.382 12.661 34.0737C12.418 33.9481 12.1743 33.8115 12.0365 33.5309C11.8057 33.0608 11.9361 32.5106 12.3411 32.1913C13.085 31.6048 13.9625 31.2836 14.8099 30.9039C15.7803 30.4689 16.768 30.0732 17.7445 29.6517C18.5993 29.2825 19.4454 28.8923 20.3007 28.5243C23.0779 27.3287 25.8556 26.1343 28.6364 24.9472C30.8714 23.9928 33.0996 23.0236 35.3482 22.1018C37.5044 21.2175 39.6606 20.332 41.8519 19.5376C42.53 19.2915 43.2254 19.0847 43.9454 18.9764C44.434 18.9026 44.9146 18.953 45.3527 19.1524C45.8844 19.3942 46.0222 19.9056 46.0837 20.4434C46.1631 21.1406 46.0364 21.8231 45.9693 22.5117C45.8573 23.6636 45.6948 24.8082 45.5342 25.9534C45.1878 28.4283 44.7995 30.8972 44.3964 33.3635C43.8247 36.86 43.2223 40.3522 42.575 43.8357C42.543 44.0068 42.514 44.1785 42.4833 44.3496C42.3374 44.9132 42.1904 45.4763 41.9257 46.0006L41.9251 45.9987Z" fill="white"/>
</g>
<defs>
<clipPath id="clip0_55_202">
<rect width="63" height="63" fill="white"/>
</clipPath>
</defs>
</svg>
