<svg width="63" height="63" viewBox="0 0 63 63" fill="none" xmlns="http://www.w3.org/2000/svg">
<g clip-path="url(#clip0_55_200)">
<path d="M38.1454 63H23.8411C23.798 62.9575 23.7438 62.9782 23.6952 62.9778C22.5523 62.9683 21.4097 62.9468 20.2674 62.9132C18.2388 62.8536 16.213 62.752 14.1964 62.5121C12.8836 62.3561 11.582 62.1395 10.3046 61.7946C8.92978 61.4233 7.61275 60.9114 6.40462 60.1457C4.30248 58.8139 2.81347 56.9729 1.87146 54.6782C1.17403 52.9794 0.80547 51.1987 0.559661 49.3891C0.316006 47.5956 0.200331 45.7906 0.128034 43.9829C0.0618904 42.3339 0.0320488 40.6837 0.019743 39.0335C0.0191277 38.932 0.00743712 38.8304 0.000976562 38.7289C0.000976562 34.0838 0.000976562 29.4389 0.000976562 24.7938C0.00651419 24.5686 0.0151283 24.3437 0.0175894 24.1185C0.0369711 22.268 0.0658898 20.4181 0.149262 18.5692C0.239402 16.5716 0.386149 14.5799 0.711638 12.6052C0.946064 11.1832 1.28232 9.78683 1.82039 8.44549C2.96053 5.60284 4.88916 3.48993 7.65982 2.1646C9.17682 1.43886 10.7898 1.02384 12.4394 0.739888C14.189 0.438703 15.9549 0.289187 17.7254 0.188587C20.0899 0.0541457 22.4582 0.0427628 24.8255 0H38.1761C38.6065 0.00830644 39.0366 0.0196893 39.467 0.0246117C42.6038 0.0612215 45.7396 0.122751 48.8597 0.492233C50.3361 0.666976 51.7968 0.925091 53.2231 1.35426C54.8007 1.82895 56.2731 2.51347 57.5735 3.54008C59.3517 4.94387 60.57 6.74359 61.3406 8.86112C61.991 10.6482 62.3189 12.5052 62.5383 14.3852C62.713 15.8825 62.8056 17.3863 62.8696 18.8916C62.9561 20.9298 62.969 22.9698 63.0013 25.0091V37.929C62.9954 38.2361 62.9874 38.5431 62.9844 38.8504C62.9659 40.7009 62.9373 42.5508 62.8536 44.3997C62.7632 46.397 62.6186 48.389 62.294 50.3641C62.0587 51.7965 61.7221 53.203 61.1809 54.5542C60.1069 57.2353 58.322 59.2846 55.7541 60.6302C54.1269 61.4827 52.3746 61.9457 50.5776 62.2586C48.8339 62.5622 47.0729 62.7111 45.3073 62.8108C42.9222 62.9455 40.5333 62.9588 38.1457 63H38.1454ZM41.8999 32.2222C41.9199 32.209 41.9399 32.1942 41.9611 32.1813C44.4109 30.696 46.4023 28.7267 48.0343 26.3871C49.5292 24.2443 50.5669 21.9016 51.0542 19.3254C51.0723 19.2297 51.0988 19.1589 50.9419 19.1596C48.7733 19.1651 46.6047 19.1642 44.4361 19.1605C44.3336 19.1605 44.2967 19.1956 44.27 19.2875C43.7107 21.1993 42.8225 22.9485 41.6433 24.5498C40.5173 26.0788 39.1913 27.3992 37.5534 28.3831C36.6053 28.9525 35.5959 29.3583 34.4924 29.5146C34.3318 29.5374 34.3324 29.4802 34.3324 29.3602C34.3345 26.0228 34.3327 22.6852 34.3385 19.3478C34.3385 19.1876 34.2942 19.1593 34.1447 19.1596C32.017 19.1648 29.8897 19.1629 27.762 19.1629C27.6297 19.1629 27.5636 19.2316 27.5636 19.3688C27.5636 25.2799 27.5636 31.191 27.5636 37.1021C27.5636 37.2549 27.488 37.3096 27.3368 37.2664C26.1235 36.919 25.039 36.3243 24.0539 35.5432C22.5345 34.3385 21.3867 32.831 20.4883 31.1261C19.0541 28.4031 18.3616 25.4681 18.0281 22.4329C17.9143 21.398 17.849 20.3597 17.8327 19.3189C17.8309 19.1922 17.7934 19.1599 17.6669 19.1602C15.3753 19.1642 13.0836 19.1645 10.792 19.1602C10.6621 19.1602 10.6332 19.1931 10.6363 19.3211C10.6766 21.0236 10.8061 22.7187 11.0405 24.4058C11.2996 26.2702 11.6887 28.1056 12.2502 29.9029C13.0261 32.3862 14.1013 34.7258 15.606 36.8572C17.2901 39.2424 19.386 41.1762 21.9346 42.6095C24.736 44.185 27.7675 44.987 30.9498 45.2765C32.0229 45.3741 33.0993 45.3885 34.1761 45.3867C34.3029 45.3867 34.3376 45.3562 34.3373 45.227C34.3324 43.7863 34.3342 42.3459 34.3342 40.9052C34.3342 39.326 34.3355 37.7472 34.3315 36.1681C34.3315 36.0462 34.3595 36.0056 34.4841 36.0269C34.701 36.0638 34.9212 36.0825 35.1381 36.1201C37.614 36.5492 39.7454 37.6561 41.5458 39.4011C43.2347 41.0381 44.4004 43.0027 45.1461 45.2239C45.1871 45.3454 45.2375 45.387 45.3683 45.387C47.7368 45.3827 50.1054 45.3839 52.4739 45.3836C52.6558 45.3836 52.6564 45.383 52.6078 45.2125C51.6279 41.7623 49.8817 38.7563 47.3646 36.2022C45.7916 34.6061 44.0177 33.2805 41.9977 32.296C41.9629 32.2791 41.9168 32.2736 41.9002 32.2222H41.8999Z" fill="white"/>
</g>
<defs>
<clipPath id="clip0_55_200">
<rect width="63" height="63" fill="white"/>
</clipPath>
</defs>
</svg>
